<svg width="93" height="93" viewBox="0 0 93 93" fill="none" xmlns="http://www.w3.org/2000/svg">
<path fill-rule="evenodd" clip-rule="evenodd" d="M17.411 0.756958H74.899L74.843 48.53C74.063 55.175 70.98 59.752 66.218 64.265C60.189 69.624 52.997 73.578 46.091 77.684L42.43 75.433C31.47 68.729 17.973 61.632 17.411 47.076V0.756958Z" fill="#292D78"/>
<path fill-rule="evenodd" clip-rule="evenodd" d="M20.855 19.3219H71.455L71.407 48.2619C69.984 60.3679 57.637 66.6469 48.302 72.3619L46.119 73.6599L44.241 72.5029C34.556 66.5799 21.353 59.9089 20.855 47.0099V19.3219Z" fill="#5ABEC1"/>
<path fill-rule="evenodd" clip-rule="evenodd" d="M45.87 28.2939C45.734 32.7599 47.427 32.9759 47.122 35.8359C48.708 34.8059 48.636 31.4469 50.878 29.1769C49.224 33.3269 50.74 34.1099 49.475 36.6929C51.318 36.2669 52.399 33.0859 55.282 31.7199C52.308 35.0539 53.465 36.3079 51.393 38.3029C53.271 38.5329 55.375 35.9129 58.551 35.6159C54.616 37.7309 55.275 39.3059 52.645 40.4709C54.331 41.3299 57.204 39.5879 60.29 40.3949C55.869 41.0369 55.95 42.7409 53.08 42.9369C54.371 44.3209 57.666 43.6669 60.29 45.4799C55.916 44.5719 55.409 46.2009 52.645 45.4029C53.385 47.1449 56.705 47.6569 58.551 50.2589C54.751 47.9089 53.717 49.2669 51.393 47.5719C51.492 49.4609 54.437 51.0779 55.282 54.1549C52.516 50.6469 51.079 51.5689 49.475 49.1809C48.922 50.9909 51.136 53.5179 50.878 56.6969C49.478 52.4549 47.813 52.8299 47.122 50.0379C45.984 51.5489 47.2 54.6809 45.87 57.5799C46.005 53.1149 44.312 52.8979 44.618 50.0379C43.031 51.0689 43.103 54.4279 40.861 56.6969C42.516 52.5479 40.999 51.7649 42.265 49.1809C40.421 49.6069 39.34 52.7889 36.457 54.1549C39.431 50.8209 38.274 49.5669 40.346 47.5719C38.468 47.3419 36.364 49.9609 33.188 50.2589C37.123 48.1429 36.465 46.5689 39.094 45.4029C37.408 44.5449 34.535 46.2859 31.449 45.4799C35.87 44.8379 35.79 43.1329 38.659 42.9369C37.369 41.5539 34.073 42.2079 31.449 40.3949C35.823 41.3029 36.331 39.6739 39.094 40.4709C38.354 38.7299 35.034 38.2169 33.188 35.6159C36.988 37.9659 38.022 36.6079 40.346 38.3029C40.247 36.4129 37.302 34.7959 36.457 31.7199C39.224 35.2279 40.66 34.3059 42.265 36.6929C42.817 34.8829 40.603 32.3569 40.861 29.1769C42.261 33.4189 43.926 33.0439 44.618 35.8359C45.756 34.3249 44.539 31.1929 45.87 28.2939Z" fill="#FFFFFE"/>
<path fill-rule="evenodd" clip-rule="evenodd" d="M45.6 74.457C38.055 69.842 28.009 65.262 23.864 57.147C27.389 54.591 32.107 50.556 36.534 47.041C39.606 44.602 42.758 42.831 45.921 42.876C49.962 42.932 52.03 45.029 56.355 48.59L67.873 58.119C68.011 63.371 51.245 72.785 45.6 74.457Z" fill="#292D78"/>
<path fill-rule="evenodd" clip-rule="evenodd" d="M24.044 57.0519L34.726 47.5249C37.9 44.5899 41.044 41.5239 45.461 41.3579C45.479 41.3579 45.498 41.3579 45.516 41.3579V43.6349C45.463 43.6349 45.411 43.6339 45.358 43.6349C41.496 43.6839 39.87 45.3999 35.736 48.4949L24.044 57.0519Z" fill="#FFFFFE"/>
<path fill-rule="evenodd" clip-rule="evenodd" d="M67.81 58.0009L56.292 47.5249C53.119 44.5899 49.974 41.5239 45.557 41.3579C45.539 41.3579 45.521 41.3579 45.503 41.3579V43.6349C45.555 43.6349 45.607 43.6339 45.66 43.6349C49.522 43.6839 51.149 45.3999 55.282 48.4949L67.81 58.0009Z" fill="#FFFFFE"/>
<path fill-rule="evenodd" clip-rule="evenodd" d="M20.855 19.3219H71.455L71.407 48.2619C69.984 60.3679 57.637 66.6469 48.302 72.3619L46.119 73.6599L44.241 72.5029C34.556 66.5799 21.353 59.9089 20.855 47.0099V19.3219Z" stroke="#FFFFFE" stroke-width="0.728"/>
<path fill-rule="evenodd" clip-rule="evenodd" d="M5.589 77.853L11.754 69.543C17.788 76.229 30.949 80.884 46.155 80.884C61.362 80.884 74.523 76.228 80.556 69.543L86.721 77.852C80.314 86.171 64.532 92.08 46.155 92.08C27.779 92.08 11.996 86.171 5.589 77.853Z" fill="#292D78"/>
<path fill-rule="evenodd" clip-rule="evenodd" d="M18.79 69.606L13.903 77.924L0.0289993 66.388L6.672 65.682L5.391 58.616C6 58.929 18.804 69.587 18.79 69.606Z" fill="#292D78"/>
<path fill-rule="evenodd" clip-rule="evenodd" d="M73.52 69.606L78.408 77.924L92.281 66.388L85.639 65.682L86.92 58.616C86.31 58.929 73.507 69.587 73.52 69.606Z" fill="#292D78"/>
<path fill-rule="evenodd" clip-rule="evenodd" d="M24.855 6.35099C25.11 6.37099 25.326 6.38299 25.505 6.39099C25.683 6.39799 25.838 6.40199 25.97 6.40199C26.094 6.40199 26.24 6.39799 26.409 6.39099C26.577 6.38299 26.803 6.36899 27.09 6.34499C27.037 6.93299 26.997 7.54199 26.971 8.16999C26.946 8.79999 26.934 9.51099 26.934 10.304C26.934 11.624 27.069 12.492 27.34 12.906C27.611 13.32 28.083 13.526 28.757 13.526C29.135 13.526 29.47 13.453 29.764 13.308C30.055 13.164 30.285 12.956 30.451 12.684C30.598 12.448 30.703 12.141 30.764 11.761C30.826 11.382 30.857 10.794 30.857 9.99699C30.857 9.31999 30.846 8.67699 30.824 8.06899C30.8 7.46299 30.764 6.88599 30.719 6.34499C30.909 6.36899 31.056 6.38299 31.161 6.39099C31.264 6.39799 31.349 6.40199 31.416 6.40199C31.486 6.40199 31.567 6.39799 31.662 6.39099C31.757 6.38299 31.89 6.37099 32.06 6.35099C32.025 6.86599 31.999 7.33999 31.981 7.77399C31.963 8.20599 31.955 8.59199 31.955 8.92899V10.687C31.955 11.493 31.902 12.103 31.793 12.522C31.684 12.94 31.503 13.295 31.254 13.584C30.947 13.933 30.56 14.194 30.095 14.367C29.629 14.539 29.078 14.624 28.444 14.624C27.746 14.624 27.148 14.529 26.647 14.337C26.145 14.145 25.761 13.867 25.495 13.503C25.301 13.237 25.164 12.892 25.083 12.47C25.002 12.048 24.96 11.378 24.96 10.461V9.00999C24.96 8.47899 24.952 8.00299 24.934 7.58299C24.916 7.16499 24.89 6.75299 24.855 6.35099ZM37.811 14.468C37.86 14.042 37.898 13.588 37.924 13.106C37.95 12.625 37.961 12.001 37.961 11.234V9.91399C37.961 9.03999 37.95 8.33999 37.924 7.81699C37.898 7.29199 37.858 6.80099 37.805 6.34499C38.593 6.37299 39.139 6.38799 39.44 6.39399C39.739 6.39999 39.969 6.40199 40.127 6.40199C40.405 6.40199 40.742 6.39799 41.134 6.39099C41.526 6.38299 42.024 6.36899 42.628 6.34499C42.62 6.45799 42.614 6.55699 42.608 6.64599C42.602 6.73499 42.6 6.81199 42.6 6.87799C42.6 6.94499 42.602 7.02099 42.608 7.10599C42.614 7.19099 42.622 7.28799 42.634 7.40099C42.325 7.37299 42.014 7.35299 41.703 7.33999C41.392 7.32599 41.075 7.31999 40.753 7.31999C40.541 7.31999 40.383 7.31999 40.282 7.32199C40.179 7.32399 40.082 7.32999 39.995 7.33799C39.979 7.57299 39.967 7.81699 39.959 8.06899C39.951 8.32099 39.947 8.65699 39.947 9.07699V9.70599C40.272 9.69799 40.653 9.68599 41.085 9.66799C41.519 9.64999 42.006 9.63099 42.549 9.60699C42.545 9.64799 42.539 9.71199 42.531 9.79299C42.511 9.98299 42.504 10.106 42.504 10.163C42.504 10.211 42.51 10.312 42.525 10.467C42.537 10.568 42.545 10.649 42.549 10.711C42.065 10.679 41.608 10.655 41.176 10.637C40.744 10.619 40.333 10.61 39.947 10.606V12.825C39.947 13.146 39.955 13.437 39.973 13.699C39.991 13.96 40.016 14.216 40.052 14.468C39.808 14.456 39.588 14.448 39.392 14.442C39.198 14.436 39.034 14.432 38.903 14.432C38.766 14.432 38.607 14.436 38.423 14.442C38.239 14.448 38.035 14.456 37.811 14.468ZM54.35 8.27299C54.187 7.85499 53.931 7.53799 53.583 7.32399C53.234 7.10799 52.8 6.99999 52.283 6.99999C51.462 6.99999 50.818 7.28199 50.352 7.84299C49.887 8.40399 49.653 9.17899 49.653 10.165C49.653 11.343 49.883 12.234 50.345 12.843C50.804 13.451 51.478 13.754 52.364 13.754C52.871 13.754 53.317 13.671 53.702 13.505C54.086 13.338 54.393 13.094 54.621 12.778L54.801 12.865C54.744 13.083 54.69 13.291 54.645 13.489C54.597 13.689 54.56 13.883 54.528 14.073C54.177 14.264 53.789 14.404 53.368 14.497C52.946 14.591 52.483 14.636 51.981 14.636C50.576 14.636 49.482 14.264 48.698 13.516C47.915 12.769 47.523 11.721 47.523 10.373C47.523 9.08599 47.935 8.06499 48.759 7.31199C49.584 6.55899 50.705 6.18199 52.126 6.18199C52.618 6.18199 53.093 6.23399 53.551 6.33899C54.011 6.44399 54.466 6.60399 54.918 6.81999C54.833 7.07199 54.758 7.31799 54.694 7.55699C54.631 7.79899 54.575 8.03699 54.528 8.27299H54.35ZM67.399 14.05C66.743 14.24 66.122 14.38 65.534 14.473C64.945 14.567 64.379 14.612 63.831 14.612C62.504 14.612 61.457 14.236 60.695 13.483C59.93 12.73 59.547 11.707 59.547 10.415C59.547 9.11899 59.973 8.08699 60.827 7.31799C61.681 6.55099 62.833 6.16699 64.285 6.16699C64.862 6.16699 65.395 6.22799 65.885 6.35299C66.374 6.47599 66.84 6.66599 67.282 6.92099C67.181 7.14899 67.095 7.38499 67.024 7.62899C66.951 7.87299 66.895 8.12199 66.851 8.37799H66.707C66.439 7.90999 66.112 7.55999 65.726 7.32799C65.337 7.09599 64.89 6.97899 64.379 6.97899C63.572 6.97899 62.926 7.29199 62.436 7.91599C61.947 8.54299 61.701 9.37499 61.701 10.415C61.701 11.461 61.931 12.276 62.393 12.863C62.853 13.449 63.491 13.742 64.307 13.742C64.521 13.742 64.715 13.731 64.892 13.707C65.068 13.685 65.237 13.647 65.399 13.598V13.267C65.399 12.845 65.389 12.421 65.369 11.995C65.351 11.569 65.322 11.14 65.282 10.711C65.484 10.726 65.678 10.736 65.865 10.744C66.049 10.752 66.219 10.756 66.376 10.756C66.531 10.756 66.699 10.752 66.881 10.744C67.064 10.736 67.254 10.726 67.456 10.711C67.412 11.164 67.383 11.533 67.365 11.82C67.347 12.105 67.339 12.35 67.339 12.552C67.339 12.698 67.343 12.884 67.351 13.106C67.359 13.328 67.375 13.643 67.399 14.05Z" fill="#FFFFFE"/>
<path fill-rule="evenodd" clip-rule="evenodd" d="M76.82 81.243C76.73 81.081 76.627 80.911 76.513 80.735C76.4 80.558 76.245 80.335 76.048 80.065L75.839 79.776L75.711 79.599C75.488 79.291 75.304 79.047 75.161 78.87C75.018 78.691 74.877 78.528 74.741 78.381C75.036 78.191 75.239 78.059 75.351 77.985C75.462 77.911 75.546 77.853 75.604 77.813C75.705 77.743 75.827 77.657 75.969 77.555C76.11 77.453 76.288 77.322 76.503 77.161C76.511 77.172 76.521 77.189 76.535 77.215C76.577 77.287 76.606 77.335 76.624 77.359C76.642 77.384 76.676 77.425 76.728 77.481C76.748 77.504 76.763 77.521 76.772 77.533C76.653 77.601 76.535 77.673 76.418 77.746C76.3 77.82 76.184 77.898 76.066 77.979C75.988 78.034 75.929 78.074 75.892 78.101C75.854 78.128 75.82 78.154 75.791 78.176C75.861 78.285 75.932 78.392 76.004 78.496C76.076 78.599 76.149 78.702 76.222 78.803L76.383 79.024C76.499 78.939 76.635 78.838 76.789 78.723C76.942 78.607 77.115 78.476 77.306 78.329C77.328 78.372 77.35 78.411 77.372 78.446C77.394 78.482 77.414 78.513 77.433 78.539C77.445 78.556 77.473 78.59 77.519 78.64C77.549 78.673 77.572 78.7 77.59 78.72C77.419 78.822 77.253 78.924 77.09 79.028C76.927 79.131 76.768 79.236 76.613 79.341L76.944 79.798C77.035 79.924 77.114 80.03 77.182 80.116C77.249 80.201 77.312 80.275 77.371 80.339C77.532 80.227 77.688 80.115 77.838 79.999C77.988 79.884 78.135 79.765 78.282 79.641C78.297 79.671 78.314 79.702 78.333 79.732C78.352 79.762 78.379 79.8 78.412 79.846C78.425 79.864 78.444 79.889 78.472 79.921C78.5 79.954 78.531 79.992 78.566 80.034C78.241 80.247 78 80.407 77.841 80.513C77.682 80.619 77.557 80.703 77.465 80.767C77.354 80.843 77.246 80.92 77.138 81C77.032 81.079 76.925 81.16 76.82 81.243ZM73.97 79.735C73.818 79.609 73.652 79.542 73.47 79.533C73.287 79.523 73.094 79.572 72.891 79.68C72.568 79.851 72.373 80.092 72.307 80.402C72.241 80.713 72.311 81.056 72.518 81.432C72.764 81.88 73.041 82.172 73.35 82.308C73.659 82.444 73.987 82.419 74.335 82.235C74.535 82.13 74.694 82.005 74.81 81.862C74.926 81.718 74.996 81.562 75.02 81.394L75.109 81.389C75.132 81.484 75.154 81.575 75.178 81.66C75.201 81.746 75.227 81.827 75.254 81.906C75.156 82.052 75.033 82.186 74.887 82.309C74.74 82.432 74.567 82.546 74.37 82.651C73.817 82.943 73.308 83.028 72.843 82.907C72.379 82.785 72.005 82.468 71.723 81.954C71.453 81.464 71.402 80.99 71.569 80.531C71.736 80.073 72.098 79.696 72.658 79.401C72.851 79.299 73.049 79.219 73.251 79.164C73.454 79.109 73.667 79.075 73.89 79.063C73.909 79.177 73.931 79.286 73.956 79.391C73.982 79.496 74.01 79.598 74.04 79.698L73.97 79.735ZM67.383 81.522C67.492 81.487 67.583 81.456 67.658 81.429C67.733 81.402 67.798 81.378 67.853 81.356C67.903 81.336 67.963 81.31 68.032 81.278C68.1 81.247 68.191 81.204 68.306 81.146C68.382 81.391 68.467 81.641 68.561 81.897C68.656 82.153 68.77 82.441 68.902 82.758C69.123 83.287 69.323 83.612 69.505 83.732C69.686 83.853 69.915 83.856 70.194 83.744C70.35 83.68 70.476 83.595 70.573 83.488C70.67 83.382 70.73 83.26 70.753 83.123C70.775 83.005 70.767 82.864 70.728 82.701C70.691 82.539 70.605 82.299 70.472 81.979C70.359 81.708 70.247 81.453 70.137 81.213C70.025 80.974 69.915 80.749 69.805 80.54C69.888 80.518 69.951 80.499 69.996 80.484C70.04 80.47 70.075 80.458 70.103 80.446C70.132 80.435 70.165 80.42 70.203 80.401C70.241 80.382 70.294 80.355 70.361 80.318C70.432 80.53 70.501 80.725 70.566 80.901C70.63 81.077 70.692 81.233 70.748 81.368L71.041 82.072C71.176 82.395 71.256 82.649 71.281 82.834C71.305 83.02 71.29 83.192 71.235 83.35C71.166 83.54 71.05 83.71 70.887 83.857C70.723 84.004 70.51 84.13 70.248 84.236C69.959 84.352 69.696 84.414 69.457 84.421C69.218 84.428 69.013 84.381 68.842 84.279C68.717 84.205 68.603 84.09 68.499 83.934C68.395 83.779 68.266 83.518 68.113 83.15L67.871 82.569C67.782 82.357 67.699 82.167 67.622 82.002C67.544 81.838 67.465 81.677 67.383 81.522ZM66.078 85.693C66.044 85.511 66.001 85.317 65.949 85.115C65.897 84.913 65.821 84.653 65.721 84.336L65.614 83.997L65.549 83.791C65.435 83.43 65.339 83.142 65.26 82.928C65.18 82.714 65.1 82.517 65.02 82.334C65.076 82.32 65.152 82.301 65.246 82.278C65.371 82.244 65.451 82.222 65.486 82.211C65.569 82.185 65.707 82.138 65.9 82.068C65.934 82.056 65.961 82.045 65.98 82.038C66.016 82.211 66.057 82.38 66.099 82.545C66.142 82.71 66.192 82.884 66.25 83.067L66.654 84.351C66.718 84.552 66.765 84.695 66.795 84.779C66.825 84.863 66.853 84.936 66.881 84.998C67.071 84.939 67.257 84.877 67.436 84.812C67.616 84.747 67.793 84.678 67.967 84.605C67.977 84.655 67.987 84.699 67.997 84.737C68.006 84.774 68.016 84.809 68.025 84.84C68.031 84.859 68.049 84.904 68.081 84.975C68.096 85.011 68.108 85.041 68.117 85.064C67.742 85.169 67.462 85.249 67.278 85.302C67.093 85.356 66.948 85.399 66.84 85.432C66.712 85.471 66.584 85.513 66.458 85.556C66.331 85.6 66.204 85.645 66.078 85.693ZM59.944 87.086L60.046 86.858C60.227 86.457 60.345 86.19 60.402 86.053L60.749 85.224L59.26 83.632C59.398 83.612 59.505 83.595 59.583 83.582C59.661 83.568 59.729 83.555 59.787 83.542C59.854 83.528 59.932 83.509 60.018 83.487C60.105 83.463 60.212 83.434 60.338 83.397C60.409 83.494 60.474 83.579 60.533 83.655C60.591 83.73 60.638 83.785 60.67 83.821L61.14 84.358C61.217 84.156 61.289 83.953 61.354 83.754C61.419 83.554 61.481 83.348 61.538 83.135C61.618 83.128 61.682 83.12 61.733 83.113C61.784 83.106 61.827 83.098 61.862 83.09C61.9 83.082 61.941 83.071 61.989 83.058C62.036 83.043 62.098 83.023 62.176 82.997C62.089 83.174 61.984 83.403 61.862 83.686C61.74 83.967 61.598 84.305 61.437 84.697L62.997 86.421C62.855 86.443 62.738 86.462 62.645 86.478C62.552 86.494 62.472 86.51 62.406 86.524C62.36 86.534 62.208 86.575 61.951 86.646L61.918 86.656C61.856 86.565 61.8 86.485 61.752 86.42C61.705 86.353 61.673 86.31 61.656 86.294L61.045 85.587C60.96 85.803 60.882 86.021 60.81 86.243C60.738 86.465 60.67 86.697 60.608 86.941C60.48 86.957 60.394 86.969 60.352 86.975C60.31 86.981 60.276 86.988 60.25 86.994C60.203 87.004 60.154 87.017 60.104 87.032C60.053 87.047 60 87.065 59.944 87.086ZM55.499 84.327C55.613 84.317 55.708 84.307 55.788 84.297C55.867 84.288 55.935 84.278 55.994 84.268C56.048 84.259 56.112 84.247 56.186 84.232C56.259 84.216 56.358 84.194 56.483 84.162C56.5 84.418 56.525 84.681 56.557 84.952C56.59 85.223 56.634 85.529 56.69 85.868C56.781 86.432 56.902 86.794 57.05 86.951C57.198 87.109 57.42 87.163 57.717 87.114C57.883 87.086 58.026 87.031 58.145 86.947C58.263 86.864 58.35 86.759 58.404 86.63C58.452 86.519 58.477 86.38 58.478 86.212C58.478 86.046 58.451 85.792 58.395 85.451C58.348 85.161 58.298 84.887 58.246 84.629C58.193 84.371 58.137 84.127 58.08 83.899C58.165 83.895 58.231 83.891 58.278 83.886C58.323 83.882 58.361 83.877 58.391 83.873C58.422 83.868 58.457 83.86 58.498 83.85C58.539 83.84 58.597 83.825 58.671 83.804C58.691 84.027 58.713 84.231 58.735 84.418C58.757 84.605 58.781 84.77 58.804 84.914L58.927 85.666C58.983 86.011 59.002 86.276 58.983 86.463C58.965 86.65 58.91 86.815 58.82 86.957C58.709 87.128 58.557 87.268 58.364 87.376C58.171 87.483 57.935 87.56 57.655 87.606C57.348 87.657 57.078 87.659 56.844 87.614C56.61 87.568 56.422 87.477 56.279 87.34C56.175 87.241 56.091 87.103 56.026 86.929C55.96 86.754 55.896 86.47 55.831 86.078L55.759 85.636L55.73 85.458C55.693 85.23 55.657 85.027 55.619 84.849C55.583 84.671 55.542 84.497 55.499 84.327ZM53.24 88.152C53.242 87.966 53.238 87.769 53.226 87.56C53.216 87.351 53.192 87.081 53.156 86.751L53.095 86.183C53.054 85.806 53.016 85.505 52.98 85.28C52.944 85.055 52.905 84.846 52.862 84.651C52.92 84.648 52.997 84.643 53.095 84.638C53.224 84.628 53.306 84.621 53.342 84.617C53.429 84.607 53.573 84.586 53.776 84.553C53.812 84.547 53.84 84.542 53.86 84.538C53.862 84.715 53.868 84.889 53.878 85.059C53.887 85.229 53.902 85.41 53.923 85.6L53.936 85.723L54.067 86.939C54.09 87.149 54.108 87.298 54.121 87.387C54.134 87.474 54.148 87.551 54.162 87.617C54.361 87.595 54.554 87.568 54.743 87.538C54.932 87.506 55.118 87.472 55.303 87.433C55.303 87.484 55.305 87.528 55.307 87.568C55.308 87.607 55.311 87.643 55.314 87.674C55.317 87.694 55.326 87.742 55.343 87.818C55.35 87.856 55.356 87.887 55.361 87.912C54.972 87.945 54.682 87.972 54.491 87.991C54.3 88.009 54.149 88.024 54.037 88.037C53.904 88.052 53.771 88.069 53.639 88.088C53.505 88.107 53.372 88.129 53.24 88.152ZM47.313 88.285C47.336 88.17 47.357 88.049 47.379 87.923C47.401 87.796 47.428 87.633 47.461 87.434L47.551 87.432C47.602 87.654 47.693 87.817 47.826 87.922C47.958 88.027 48.135 88.076 48.358 88.069C48.561 88.064 48.72 88.014 48.834 87.921C48.948 87.826 49.003 87.701 49.001 87.543C48.998 87.427 48.959 87.33 48.881 87.252C48.802 87.175 48.61 87.071 48.302 86.942C47.891 86.768 47.62 86.608 47.486 86.461C47.353 86.313 47.285 86.124 47.28 85.892C47.275 85.553 47.392 85.283 47.633 85.081C47.873 84.88 48.206 84.773 48.633 84.761C48.815 84.756 48.985 84.769 49.143 84.8C49.301 84.831 49.448 84.881 49.586 84.951C49.543 85.064 49.505 85.175 49.473 85.288C49.44 85.401 49.411 85.515 49.386 85.632L49.323 85.634C49.244 85.445 49.144 85.308 49.024 85.223C48.904 85.138 48.753 85.098 48.571 85.103C48.392 85.108 48.249 85.155 48.142 85.241C48.035 85.328 47.982 85.439 47.984 85.573C47.987 85.753 48.2 85.93 48.623 86.104C48.696 86.134 48.752 86.158 48.792 86.175C49.196 86.35 49.457 86.51 49.575 86.653C49.693 86.797 49.754 86.985 49.758 87.217C49.764 87.582 49.636 87.873 49.372 88.088C49.107 88.302 48.737 88.417 48.261 88.43C48.084 88.435 47.916 88.425 47.755 88.4C47.595 88.375 47.447 88.336 47.313 88.285ZM44.289 88.425C44.311 88.24 44.328 88.043 44.34 87.834C44.351 87.625 44.356 87.354 44.356 87.021V86.448C44.356 86.069 44.351 85.765 44.34 85.539C44.328 85.311 44.311 85.098 44.287 84.901C44.638 84.909 44.881 84.913 45.015 84.914C45.149 84.915 45.251 84.915 45.322 84.914C45.446 84.913 45.596 84.91 45.771 84.904C45.945 84.899 46.167 84.89 46.437 84.877C46.437 84.891 46.435 84.911 46.431 84.94C46.422 85.022 46.418 85.079 46.418 85.109C46.418 85.14 46.422 85.192 46.431 85.267C46.434 85.297 46.436 85.32 46.437 85.335C46.299 85.325 46.161 85.318 46.022 85.313C45.884 85.309 45.743 85.308 45.6 85.309C45.504 85.31 45.432 85.311 45.386 85.312C45.339 85.314 45.297 85.316 45.26 85.318C45.253 85.447 45.248 85.575 45.245 85.701C45.242 85.826 45.241 85.952 45.241 86.076V86.348C45.386 86.343 45.556 86.336 45.748 86.327C45.942 86.317 46.159 86.305 46.401 86.29C46.394 86.338 46.389 86.382 46.385 86.424C46.383 86.466 46.381 86.503 46.381 86.535C46.381 86.555 46.384 86.599 46.391 86.666C46.396 86.71 46.399 86.745 46.401 86.772C46.202 86.76 46.007 86.752 45.814 86.746C45.62 86.741 45.43 86.738 45.241 86.739V87.301C45.241 87.456 45.243 87.587 45.248 87.696C45.252 87.804 45.26 87.9 45.27 87.986C45.467 87.984 45.659 87.978 45.849 87.966C46.039 87.954 46.229 87.938 46.421 87.919C46.416 87.952 46.412 87.987 46.41 88.022C46.407 88.057 46.407 88.104 46.407 88.16C46.407 88.182 46.407 88.213 46.411 88.256C46.415 88.298 46.417 88.347 46.421 88.402C46.031 88.396 45.74 88.393 45.549 88.391C45.357 88.39 45.206 88.39 45.094 88.391C44.959 88.393 44.825 88.396 44.691 88.402C44.558 88.407 44.423 88.415 44.289 88.425ZM39.914 88.283C39.948 88.027 39.977 87.764 40.001 87.495C40.025 87.226 40.047 86.903 40.067 86.529C40.08 86.295 40.09 86.03 40.097 85.734C40.105 85.438 40.11 85.114 40.113 84.765C40.204 84.777 40.276 84.785 40.328 84.791C40.38 84.796 40.425 84.8 40.461 84.801C40.5 84.803 40.546 84.803 40.597 84.802C40.647 84.801 40.717 84.798 40.805 84.793C41.104 85.208 41.413 85.612 41.73 86.007C42.047 86.401 42.375 86.786 42.712 87.162L42.764 86.193C42.779 85.916 42.789 85.679 42.793 85.479C42.798 85.28 42.8 85.077 42.799 84.873C42.86 84.883 42.913 84.89 42.957 84.895C43.002 84.901 43.04 84.904 43.071 84.906C43.1 84.907 43.149 84.906 43.216 84.903C43.283 84.899 43.334 84.897 43.367 84.895C43.331 85.083 43.299 85.338 43.27 85.658C43.241 85.977 43.211 86.451 43.177 87.077L43.163 87.324C43.15 87.579 43.142 87.79 43.14 87.955C43.138 88.121 43.14 88.273 43.146 88.413C43.062 88.4 42.998 88.391 42.953 88.386C42.907 88.38 42.867 88.377 42.833 88.376C42.797 88.374 42.754 88.374 42.707 88.376C42.659 88.377 42.595 88.381 42.514 88.388C42.211 87.975 41.898 87.569 41.576 87.168C41.252 86.768 40.915 86.367 40.563 85.968L40.487 87.393C40.481 87.494 40.476 87.623 40.471 87.781C40.466 87.939 40.462 88.113 40.458 88.305C40.395 88.294 40.341 88.286 40.296 88.28C40.252 88.274 40.213 88.271 40.178 88.269C40.156 88.268 40.126 88.269 40.088 88.271C40.049 88.273 39.992 88.276 39.914 88.283ZM34.598 87.72C34.715 87.339 34.813 87.015 34.891 86.75C34.968 86.484 35.038 86.235 35.1 86.003L35.558 84.274C35.654 84.294 35.729 84.309 35.78 84.318C35.832 84.327 35.878 84.334 35.917 84.338C35.96 84.342 36.01 84.346 36.069 84.349C36.128 84.351 36.201 84.353 36.29 84.353C36.409 84.825 36.524 85.258 36.634 85.651C36.744 86.044 36.855 86.416 36.965 86.767L37.804 85.439C37.911 85.267 38.001 85.114 38.076 84.975C38.15 84.837 38.217 84.701 38.273 84.569C38.364 84.589 38.437 84.603 38.492 84.612C38.546 84.622 38.593 84.628 38.632 84.633C38.677 84.637 38.727 84.641 38.783 84.644C38.839 84.647 38.912 84.649 39.003 84.648L38.955 86.392C38.953 86.432 38.951 86.494 38.949 86.579C38.93 87.313 38.934 87.851 38.962 88.194C38.84 88.171 38.743 88.154 38.672 88.143C38.6 88.132 38.539 88.123 38.487 88.118C38.429 88.111 38.364 88.106 38.29 88.102C38.217 88.097 38.121 88.092 38.001 88.09C38.03 87.816 38.053 87.47 38.067 87.054C38.067 87.022 38.068 86.999 38.07 86.986L38.096 85.75C37.862 86.119 37.634 86.486 37.415 86.853C37.195 87.221 36.981 87.588 36.774 87.957C36.744 87.95 36.714 87.944 36.687 87.94C36.66 87.935 36.628 87.93 36.59 87.926C36.569 87.924 36.529 87.922 36.471 87.919C36.44 87.917 36.414 87.916 36.396 87.915C36.289 87.508 36.175 87.107 36.053 86.71C35.931 86.315 35.8 85.922 35.66 85.533L35.331 86.919C35.308 87.037 35.282 87.169 35.254 87.316C35.226 87.463 35.197 87.618 35.168 87.782C35.082 87.762 35.017 87.749 34.974 87.741C34.931 87.733 34.896 87.728 34.868 87.725C34.84 87.722 34.807 87.719 34.766 87.719C34.725 87.718 34.669 87.718 34.598 87.72ZM30.19 85.224C30.306 84.642 30.577 84.221 31.002 83.961C31.427 83.701 31.961 83.628 32.603 83.742C33.223 83.853 33.672 84.088 33.951 84.449C34.231 84.809 34.315 85.263 34.206 85.809C34.088 86.401 33.818 86.831 33.398 87.095C32.977 87.36 32.441 87.434 31.793 87.319C31.166 87.207 30.715 86.97 30.437 86.61C30.16 86.249 30.078 85.787 30.19 85.224ZM31.141 85.347C31.05 85.805 31.073 86.179 31.208 86.47C31.344 86.761 31.577 86.936 31.908 86.995C32.231 87.053 32.513 86.968 32.754 86.742C32.994 86.515 33.16 86.176 33.25 85.723C33.342 85.263 33.32 84.885 33.185 84.591C33.049 84.298 32.818 84.122 32.491 84.064C32.163 84.005 31.879 84.09 31.638 84.317C31.398 84.544 31.233 84.888 31.141 85.347ZM23.725 85.211C24.172 84.706 24.604 84.202 25.018 83.697C25.432 83.19 25.832 82.682 26.217 82.171C26.22 82.172 26.224 82.173 26.231 82.175C26.34 82.22 26.42 82.25 26.47 82.264C26.512 82.276 26.581 82.291 26.678 82.309C26.704 82.312 26.722 82.316 26.734 82.319C26.757 82.982 26.789 83.631 26.832 84.265C26.874 84.899 26.926 85.526 26.987 86.146C26.881 86.11 26.788 86.08 26.707 86.054C26.626 86.028 26.558 86.007 26.502 85.99C26.427 85.969 26.348 85.948 26.264 85.927C26.181 85.905 26.09 85.883 25.992 85.86C25.99 85.763 25.989 85.599 25.988 85.367C25.987 85.134 25.985 84.955 25.984 84.829C25.953 84.818 25.874 84.792 25.747 84.751C25.621 84.71 25.518 84.679 25.439 84.656C25.414 84.649 25.341 84.63 25.218 84.599C25.096 84.569 24.986 84.541 24.887 84.514C24.759 84.693 24.557 84.969 24.281 85.341L24.263 85.365C24.203 85.342 24.153 85.324 24.114 85.31C24.074 85.296 24.043 85.285 24.02 85.279C23.979 85.267 23.934 85.256 23.884 85.244C23.834 85.233 23.781 85.221 23.725 85.211ZM25.168 84.152C25.18 84.155 25.198 84.161 25.224 84.17C25.385 84.222 25.5 84.257 25.569 84.277C25.647 84.3 25.777 84.333 25.955 84.377L25.982 84.385C25.982 84.202 25.976 84.014 25.963 83.821C25.951 83.628 25.932 83.427 25.905 83.219C25.765 83.385 25.633 83.546 25.51 83.702C25.386 83.858 25.272 84.008 25.168 84.152ZM22.315 82.593L22.337 82.601C22.608 82.705 22.825 82.73 22.99 82.676C23.155 82.622 23.283 82.485 23.373 82.265C23.456 82.067 23.464 81.903 23.397 81.773C23.33 81.643 23.181 81.534 22.95 81.446C22.949 81.445 22.935 81.439 22.91 81.428C22.883 81.416 22.857 81.405 22.83 81.395C22.791 81.471 22.754 81.548 22.718 81.627C22.682 81.707 22.64 81.808 22.589 81.932L22.315 82.593ZM20.739 84.061C20.849 83.853 20.955 83.64 21.059 83.419C21.162 83.199 21.279 82.93 21.41 82.614L21.478 82.448C21.63 82.082 21.752 81.772 21.844 81.518C21.936 81.265 22.019 81.019 22.093 80.779C22.104 80.785 22.117 80.79 22.133 80.796C22.282 80.866 22.391 80.914 22.459 80.941C22.555 80.977 22.717 81.032 22.942 81.105C23.167 81.179 23.341 81.24 23.464 81.286C23.845 81.432 24.095 81.607 24.216 81.811C24.336 82.016 24.335 82.265 24.214 82.559C24.119 82.787 23.974 82.947 23.777 83.04C23.581 83.132 23.36 83.143 23.115 83.073C23.167 83.43 23.228 83.779 23.295 84.121C23.364 84.463 23.44 84.797 23.522 85.126C23.382 85.061 23.272 85.013 23.193 84.978C23.113 84.944 23.048 84.917 22.997 84.898C22.936 84.875 22.866 84.85 22.787 84.824C22.708 84.798 22.613 84.769 22.503 84.736C22.497 84.538 22.471 84.279 22.423 83.961C22.375 83.642 22.305 83.268 22.213 82.84L21.954 83.468C21.882 83.643 21.818 83.805 21.763 83.957C21.708 84.109 21.658 84.255 21.615 84.396C21.51 84.345 21.425 84.306 21.359 84.277C21.293 84.248 21.236 84.224 21.188 84.206C21.14 84.188 21.082 84.167 21.012 84.145C20.943 84.122 20.853 84.094 20.739 84.061ZM19.237 81.529C19.491 81.646 19.699 81.681 19.857 81.632C20.016 81.584 20.153 81.444 20.268 81.214C20.361 81.027 20.385 80.866 20.343 80.729C20.301 80.593 20.191 80.484 20.016 80.402C20.002 80.395 19.98 80.388 19.949 80.377C19.918 80.367 19.88 80.354 19.836 80.338C19.816 80.375 19.796 80.412 19.777 80.447C19.759 80.482 19.741 80.517 19.725 80.55L19.592 80.816L19.237 81.529ZM19.076 81.863L18.761 82.496C18.737 82.544 18.699 82.633 18.645 82.763C18.592 82.893 18.532 83.044 18.465 83.215C18.359 83.154 18.274 83.107 18.206 83.072C18.138 83.037 18.078 83.007 18.025 82.983C17.975 82.96 17.913 82.933 17.84 82.904C17.768 82.875 17.676 82.839 17.563 82.796C17.692 82.583 17.819 82.364 17.943 82.138C18.066 81.912 18.223 81.611 18.411 81.233C18.566 80.922 18.702 80.636 18.822 80.375C18.94 80.115 19.048 79.86 19.147 79.613C19.231 79.66 19.302 79.7 19.358 79.73C19.414 79.759 19.464 79.785 19.509 79.806C19.599 79.847 19.743 79.908 19.942 79.989C20.14 80.07 20.293 80.136 20.399 80.185C20.781 80.362 21.026 80.561 21.135 80.782C21.244 81.001 21.225 81.259 21.079 81.551C20.911 81.888 20.675 82.089 20.369 82.155C20.064 82.222 19.692 82.152 19.252 81.948C19.204 81.925 19.167 81.909 19.143 81.896C19.119 81.884 19.096 81.873 19.076 81.863ZM15.858 77.778C15.949 77.844 16.027 77.899 16.091 77.943C16.156 77.987 16.213 78.025 16.263 78.056C16.309 78.084 16.364 78.117 16.429 78.153C16.494 78.189 16.582 78.237 16.695 78.295C16.532 78.498 16.37 78.712 16.208 78.936C16.045 79.161 15.868 79.419 15.675 79.71C15.355 80.193 15.195 80.543 15.195 80.758C15.197 80.973 15.323 81.157 15.575 81.314C15.716 81.402 15.859 81.453 16.004 81.468C16.148 81.483 16.284 81.46 16.413 81.399C16.525 81.347 16.639 81.258 16.754 81.133C16.869 81.009 17.023 80.8 17.217 80.509C17.381 80.26 17.533 80.022 17.672 79.794C17.81 79.566 17.937 79.346 18.051 79.137C18.117 79.19 18.168 79.23 18.206 79.257C18.242 79.283 18.273 79.305 18.299 79.321C18.324 79.336 18.356 79.354 18.393 79.373C18.43 79.393 18.483 79.419 18.552 79.451C18.413 79.631 18.288 79.799 18.176 79.954C18.065 80.109 17.968 80.248 17.886 80.372L17.46 81.016C17.264 81.312 17.096 81.523 16.953 81.651C16.811 81.779 16.658 81.867 16.494 81.915C16.295 81.971 16.087 81.978 15.871 81.933C15.655 81.888 15.428 81.791 15.191 81.644C14.93 81.482 14.73 81.308 14.589 81.121C14.448 80.934 14.372 80.743 14.361 80.548C14.353 80.405 14.386 80.247 14.458 80.074C14.53 79.9 14.677 79.645 14.899 79.309L15.151 78.929L15.252 78.777C15.381 78.582 15.493 78.406 15.588 78.248C15.683 78.09 15.774 77.934 15.858 77.778ZM11.172 78.694C11.267 78.623 11.366 78.546 11.469 78.466C11.573 78.385 11.705 78.28 11.866 78.152L11.934 78.208C11.818 78.408 11.773 78.591 11.799 78.756C11.824 78.92 11.921 79.072 12.089 79.213C12.242 79.341 12.393 79.407 12.542 79.411C12.69 79.415 12.817 79.357 12.924 79.236C13.002 79.147 13.039 79.049 13.035 78.94C13.03 78.831 12.96 78.627 12.822 78.33C12.639 77.932 12.55 77.635 12.553 77.437C12.557 77.24 12.637 77.053 12.793 76.877C13.021 76.619 13.293 76.492 13.609 76.497C13.925 76.503 14.243 76.64 14.565 76.909C14.703 77.024 14.819 77.145 14.913 77.271C15.008 77.397 15.083 77.53 15.135 77.672C15.027 77.729 14.922 77.788 14.82 77.851C14.719 77.915 14.619 77.982 14.52 78.053L14.473 78.013C14.544 77.82 14.566 77.652 14.535 77.51C14.505 77.368 14.421 77.24 14.285 77.126C14.149 77.013 14.012 76.954 13.874 76.949C13.735 76.945 13.62 76.994 13.53 77.096C13.409 77.233 13.443 77.504 13.635 77.91C13.668 77.98 13.693 78.035 13.711 78.074C13.887 78.468 13.969 78.758 13.957 78.943C13.945 79.128 13.861 79.308 13.705 79.485C13.458 79.764 13.164 79.898 12.822 79.887C12.48 79.876 12.129 79.721 11.77 79.421C11.636 79.309 11.519 79.192 11.418 79.069C11.317 78.946 11.235 78.82 11.172 78.694ZM79.805 79.339C79.737 79.243 79.665 79.143 79.589 79.04C79.512 78.936 79.414 78.804 79.292 78.642L79.355 78.578C79.553 78.698 79.737 78.75 79.907 78.731C80.078 78.714 80.241 78.626 80.395 78.468C80.536 78.325 80.614 78.18 80.627 78.036C80.64 77.892 80.589 77.767 80.472 77.658C80.386 77.578 80.287 77.538 80.175 77.538C80.063 77.537 79.85 77.597 79.536 77.719C79.116 77.881 78.806 77.955 78.603 77.944C78.401 77.932 78.214 77.847 78.043 77.688C77.793 77.455 77.68 77.185 77.706 76.878C77.731 76.572 77.892 76.268 78.188 75.966C78.315 75.837 78.447 75.729 78.582 75.642C78.717 75.555 78.859 75.489 79.008 75.443C79.059 75.551 79.113 75.656 79.172 75.757C79.23 75.858 79.293 75.958 79.36 76.056L79.316 76.101C79.122 76.024 78.951 75.996 78.803 76.02C78.656 76.043 78.519 76.12 78.393 76.248C78.269 76.375 78.2 76.505 78.186 76.64C78.173 76.774 78.216 76.888 78.315 76.98C78.447 77.104 78.728 77.081 79.157 76.912C79.231 76.882 79.288 76.861 79.329 76.845C79.745 76.69 80.048 76.622 80.237 76.641C80.426 76.66 80.605 76.749 80.777 76.909C81.047 77.16 81.166 77.452 81.133 77.784C81.1 78.116 80.918 78.45 80.588 78.787C80.465 78.912 80.338 79.021 80.204 79.115C80.072 79.208 79.938 79.283 79.805 79.339Z" fill="#FFFFFE"/>
</svg>
